<?xml version="1.0" encoding="UTF-8"?>
<svg width="470px" height="368px" viewBox="0 0 470 368" version="1.1" xmlns="http://www.w3.org/2000/svg" xmlns:xlink="http://www.w3.org/1999/xlink">
    <title>Group</title>
    <g id="Icons" stroke="none" stroke-width="1" fill="none" fill-rule="evenodd">
        <g id="personal_icon" transform="translate(-56.000000, -19.000000)" fill="#4E5CA6">
            <g id="Group" transform="translate(56.166667, 19.367130)">
                <g id="Alphabet-B" transform="translate(0.000000, 47.632870)">
                    <path d="M0,32 C0,14.3264 14.3264,0 32,0 L138.666667,0 C191.6864,0 234.666667,42.9802667 234.666667,96 C234.666667,120.587733 225.413333,143.024 210.221867,160 C225.413333,176.976 234.666667,199.412267 234.666667,224 C234.666667,277.019733 191.6864,320 138.666667,320 L32,320 C23.5125333,320 15.3738667,316.628267 9.3728,310.6272 C3.37173333,304.626133 0,296.487467 0,288 L0,32 Z M32,21.3333333 C26.1088,21.3333333 21.3333333,26.1088 21.3333333,32 L21.3333333,288 C21.3333333,290.8288 22.4576,293.5424 24.4576,295.5424 C26.4576,297.5424 29.1712,298.666667 32,298.666667 L138.666667,298.666667 C179.904,298.666667 213.333333,265.237333 213.333333,224 C213.333333,201.700267 203.5712,181.694933 188.052267,167.9968 C185.757867,165.972267 184.443733,163.060267 184.443733,160 C184.443733,156.939733 185.757867,154.027733 188.052267,152.0032 C203.5712,138.305067 213.333333,118.299733 213.333333,96 C213.333333,54.7626667 179.904,21.3333333 138.666667,21.3333333 L32,21.3333333 Z M42.6666667,53.3333333 C42.6666667,47.4421333 47.4421333,42.6666667 53.3333333,42.6666667 L138.666667,42.6666667 C168.1216,42.6666667 192,66.5450667 192,96 C192,125.454933 168.1216,149.333333 138.666667,149.333333 L53.3333333,149.333333 C47.4421333,149.333333 42.6666667,144.557867 42.6666667,138.666667 L42.6666667,53.3333333 Z M64,64 L64,128 L138.666667,128 C156.340267,128 170.666667,113.6736 170.666667,96 C170.666667,78.3264 156.340267,64 138.666667,64 L64,64 Z M42.6666667,181.333333 C42.6666667,175.442133 47.4421333,170.666667 53.3333333,170.666667 L138.666667,170.666667 C168.1216,170.666667 192,194.545067 192,224 C192,253.454933 168.1216,277.333333 138.666667,277.333333 L53.3333333,277.333333 C47.4421333,277.333333 42.6666667,272.557867 42.6666667,266.666667 L42.6666667,181.333333 Z M64,192 L64,256 L138.666667,256 C156.340267,256 170.666667,241.6736 170.666667,224 C170.666667,206.3264 156.340267,192 138.666667,192 L64,192 Z" id="Shape"></path>
                </g>
                <g id="Letter-K" transform="translate(316.333333, 183.632870) rotate(-14.000000) translate(-316.333333, -183.632870) translate(199.000000, 23.632817)">
                    <path d="M-6.60539148e-14,288.000107 L-6.60539148e-14,32.0001067 C-6.60539148e-14,14.3265067 14.3264,-3.12928857e-14 32,-3.12928857e-14 C49.6736,-3.12928857e-14 64,14.3265067 64,32.0001067 L64,125.412373 L180.039467,9.37258667 C192.535467,-3.12416 212.7968,-3.12416 225.293867,9.37258667 C237.790933,21.8699733 237.790933,42.13024 225.293867,54.6273067 L119.921067,160.000107 L225.293867,265.372907 C237.790933,277.869973 237.790933,298.13024 225.293867,310.627307 L217.762133,303.095573 L225.293867,310.627307 C212.7968,323.124373 192.536533,323.124373 180.039467,310.627307 L74.6666667,205.254507 L64,215.921173 L64,288.000107 C64,305.673707 49.6736,320.000107 32,320.000107 C14.3264,320.000107 -6.60539148e-14,305.673707 -6.60539148e-14,288.000107 Z M21.3333333,32.0001067 L21.3333333,288.000107 C21.3333333,293.891307 26.1088,298.666773 32,298.666773 C37.8912,298.666773 42.6666667,293.891307 42.6666667,288.000107 L42.6666667,211.50304 C42.6666667,208.67424 43.7909333,205.961707 45.7909333,203.96064 L67.1242667,182.627307 C69.1242667,180.627307 71.8378667,179.50304 74.6666667,179.50304 C77.4954667,179.50304 80.2090667,180.627307 82.2090667,182.627307 L195.124267,295.542507 C199.2896,299.70784 206.043733,299.70784 210.209067,295.542507 C214.3744,291.377173 214.3744,284.62304 210.209067,280.457707 L97.2938667,167.542507 C93.1285333,163.377173 93.1285333,156.62304 97.2938667,152.457707 L210.209067,39.5425067 C214.3744,35.3771733 214.3744,28.62304 210.209067,24.4577067 C206.043733,20.2923733 199.2896,20.2923733 195.124267,24.4577067 L60.8757333,158.70624 C57.8250667,161.756907 53.2373333,162.668907 49.2512,161.017707 C45.2650667,159.367573 42.6666667,155.47744 42.6666667,151.16384 L42.6666667,32.0001067 C42.6666667,26.1089067 37.8912,21.33344 32,21.33344 C26.1088,21.33344 21.3333333,26.1089067 21.3333333,32.0001067 Z" id="Shape"></path>
                </g>
            </g>
        </g>
    </g>
</svg>